<svg xmlns="http://www.w3.org/2000/svg" viewBox="0 0 100 100" width="100" height="100">
  <defs>
    <linearGradient id="cortexBrain" x1="0" y1="0" x2="0" y2="1">
      <stop offset="0" stop-color="#ffb05a"/>
      <stop offset="1" stop-color="#a83a09"/>
    </linearGradient>
  </defs>
  <g fill="url(#cortexBrain)" stroke="url(#cortexBrain)">
    <ellipse cx="50" cy="44" rx="33" ry="27"/>
    <circle cx="33" cy="28" r="12"/>
    <circle cx="50" cy="23" r="13"/>
    <circle cx="67" cy="28" r="12"/>
    <circle cx="23" cy="40" r="12"/>
    <circle cx="77" cy="40" r="12"/>
    <circle cx="30" cy="55" r="11"/>
    <circle cx="70" cy="55" r="11"/>
    <line x1="50" y1="60" x2="50" y2="84" stroke-width="15" stroke-linecap="round"/>
  </g>
  <g stroke="#5a2006" stroke-opacity="0.55" fill="none">
    <line x1="50" y1="18" x2="50" y2="62" stroke-width="3.4" stroke-linecap="round"/>
    <line x1="28" y1="33" x2="41" y2="39" stroke-width="3" stroke-linecap="round"/>
    <line x1="25" y1="46" x2="40" y2="49" stroke-width="3" stroke-linecap="round"/>
    <line x1="31" y1="56" x2="44" y2="57" stroke-width="3" stroke-linecap="round"/>
    <line x1="59" y1="39" x2="72" y2="33" stroke-width="3" stroke-linecap="round"/>
    <line x1="60" y1="49" x2="75" y2="46" stroke-width="3" stroke-linecap="round"/>
    <line x1="56" y1="57" x2="69" y2="56" stroke-width="3" stroke-linecap="round"/>
  </g>
</svg>
